<?xml version="1.0" encoding="UTF-8"?>
<svg id="Layer_2" data-name="Layer 2" xmlns="http://www.w3.org/2000/svg" viewBox="0 0 1818.82 30">
  <defs>
    <style>
      .cls-1 {
        fill: none;
        stroke: #faa4b5;
        stroke-linecap: round;
        stroke-miterlimit: 10;
        stroke-width: 10px;
      }
    </style>
  </defs>
  <g id="Layer_1-2" data-name="Layer 1">
    <path class="cls-1" d="M5,5c56.53,0,56.53,20,113.05,20S174.58,5,231.1,5s56.52,20,113.05,20,56.53-20,113.05-20,56.53,20,113.05,20,56.53-20,113.05-20,56.53,20,113.05,20,56.53-20,113.05-20,56.52,20,113.05,20,56.53-20,113.05-20,56.53,20,113.05,20,56.53-20,113.05-20,56.52,20,113.05,20,56.53-20,113.05-20,56.53,20,113.06,20,56.53-20,113.06-20"/>
  </g>
</svg>